<svg width="56" height="47" viewBox="0 0 56 47" fill="none" xmlns="http://www.w3.org/2000/svg">
<path d="M32.9075 44.3478C34.3986 44.3139 35.6524 42.923 35.6694 41.1929C35.6524 39.4458 34.4155 38.038 32.9075 38.038C31.3486 38.021 30.1117 39.4288 30.1625 41.1929C30.1117 42.906 31.3486 44.3139 32.9075 44.3478ZM27.9259 41.1929C27.9259 38.4281 30.1456 36.2061 32.9075 36.2061C35.6185 36.2061 37.8382 38.4281 37.8891 41.1929C37.8382 43.9238 35.6185 46.1458 32.9075 46.1797C30.1286 46.1458 27.9089 43.9238 27.9259 41.1929Z" fill="#1A1A1A"/>
<path d="M43.4499 38.2419V46.0103H41.4023V38.2419H38.4629V36.5117H46.2571V38.2419H43.4499Z" fill="#1A1A1A"/>
<path d="M50.8231 42.28H52.1257L50.8231 38.8087L49.5206 42.28H50.8231ZM48.8439 43.8688L48.0658 46.0103H45.5791L49.5037 36.5117H52.1257L55.915 46.0103H53.4283L52.6501 43.8688H48.8439V43.8688Z" fill="#1A1A1A"/>
<path d="M5.10803 38.2419V46.0103H3.02509V38.2419H0.169434V36.5117H7.96369V38.2419H5.10803Z" fill="#1A1A1A"/>
<path d="M13.3706 44.3478C14.8786 44.3139 16.1325 42.923 16.1325 41.1929C16.1325 39.4458 14.8956 38.038 13.3706 38.038C11.8287 38.021 10.5918 39.4288 10.6256 41.1929C10.5748 42.906 11.8117 44.3139 13.3706 44.3478ZM8.37207 41.1929C8.37207 38.4281 10.5918 36.2061 13.3537 36.2061C16.0817 36.2061 18.3014 38.4281 18.3353 41.1929C18.3014 43.9238 16.0817 46.1458 13.3706 46.1797C10.6087 46.1458 8.38901 43.9238 8.37207 41.1929Z" fill="#1A1A1A"/>
<path d="M22.951 46.0103H23.9884V42.3943L27.619 36.5117H25.2934L22.951 40.5257L20.7593 36.5117H18.2998L21.9305 42.3943V46.0103H22.951Z" fill="#1A1A1A"/>
<path d="M30.0948 29.6665C32.2806 27.6141 34.0936 22.6952 34.0936 16.5549C34.0936 16.2157 34.0936 15.9104 34.0936 15.5711C42.2776 14.3668 45.6326 10.8048 46.2087 8.27746C48.0556 10.2959 49.0723 12.7894 48.852 15.8595C48.3606 23.1192 40.5154 29.005 30.0948 29.6665ZM27.9937 24.8663C26.1129 24.8663 24.3846 20.7445 24.249 15.8425C24.249 15.8425 24.7743 15.8934 25.4859 15.9273C26.2315 15.9612 27.1804 15.9952 27.892 15.9952H28.0784C28.7901 15.9952 29.7389 15.9782 30.4845 15.9273C31.1961 15.8934 31.7214 15.8425 31.7214 15.8425C31.6028 20.7615 29.8575 24.8663 27.9937 24.8663ZM7.13539 15.8764C6.93206 12.8063 7.94871 10.3129 9.77868 8.29442C10.3378 10.8218 13.7097 14.3668 21.8938 15.5881C21.8768 15.9104 21.8938 16.2326 21.8938 16.5719C21.8938 22.7121 23.6899 27.6481 25.8757 29.6835C15.4719 29.005 7.62677 23.1192 7.13539 15.8764ZM31.3825 11.9582C30.2981 12.06 29.1459 12.1109 27.9937 12.1109C26.8415 12.1109 25.6723 12.06 24.6048 11.9582C25.181 8.49796 26.5026 6.0724 27.9937 6.0724H28.0106C29.4678 6.0724 30.7895 8.49796 31.3825 11.9582ZM27.9767 2.0524C35.788 2.0524 41.9388 4.41012 41.9388 7.09012C41.9388 9.12556 38.5669 10.8896 33.7039 11.6699C32.8397 6.41164 30.6031 2.66303 27.9937 2.64607C25.3843 2.66303 23.1476 6.41164 22.2835 11.6699C17.4036 10.8896 14.0486 9.14252 14.0486 7.09012C14.0317 4.41012 20.1824 2.0524 27.9767 2.0524ZM27.9937 0C14.5569 0.067848 3.56017 6.9205 3.66183 15.9104C3.74655 24.8833 14.7094 31.5324 27.9937 31.5324H28.0106C41.2949 31.5324 52.2578 24.8833 52.3425 15.9104C52.4103 6.9205 41.4135 0.067848 27.9937 0Z" fill="#1A1A1A"/>
</svg>
